<?xml version="1.0" encoding="utf-8"?>
<!-- Generator: Adobe Illustrator 25.0.0, SVG Export Plug-In . SVG Version: 6.00 Build 0)  -->
<svg version="1.1" id="Layer_1" xmlns="http://www.w3.org/2000/svg" xmlns:xlink="http://www.w3.org/1999/xlink" x="0px" y="0px"
	 viewBox="0 0 32 32" style="enable-background:new 0 0 32 32;" xml:space="preserve">
<style type="text/css">
	.st0{fill:#F16022;}
	.st1{fill:#50C8EC;}
</style>
<g>
	<path class="st0" d="M11.6,25.5c-1.2,0-2.2,1.3-2.2,2.8c0,1.5,1,2.8,2.2,2.8c1.2,0,2.2-1.3,2.2-2.8C13.8,26.8,12.8,25.5,11.6,25.5z
		 M11.6,29.4c-0.5,0-0.8-0.4-0.8-1.1c0-0.7,0.3-1.1,0.8-1.1s0.8,0.4,0.8,1.1C12.4,29,12.1,29.4,11.6,29.4z"/>
	<path class="st0" d="M20.4,25.5c-1.2,0-2.2,1.3-2.2,2.8c0,1.5,1,2.8,2.2,2.8c1.2,0,2.2-1.3,2.2-2.8S21.6,25.5,20.4,25.5z
		 M20.4,29.4c-0.5,0-0.8-0.4-0.8-1.1c0-0.7,0.3-1.1,0.8-1.1c0.5,0,0.8,0.4,0.8,1.1C21.2,29,20.9,29.4,20.4,29.4z"/>
	<path class="st0" d="M7.6,23.6c0,0.6,0,1.1,0,1.7c6.2-1.4,12.4-1,18.6,0.6v2.4c-1.1-0.3-2.3-0.6-3.4-0.8c-0.3-1.4-1.3-2.5-2.4-2.5
		c-1,0-1.8,0.8-2.2,1.9c-1.5-0.1-2.9-0.1-4.4-0.1c-0.4-1.1-1.3-1.8-2.2-1.8c-1.1,0-2.1,1-2.4,2.4c-0.5,0.1-1,0.2-1.6,0.3
		C7,27.9,6.4,28,5.8,28.2c0-0.8,0-1.6,0-2.5c0-0.6,0-1.1,0-1.7h0C5.2,18.4,3.6,13.5,0.5,9.5c1.2-0.8,2.3-0.2,3.2,1.6
		C4.1,10.5,4.5,9.8,5,9.3c0.2-0.2,0.7-0.1,1,0.1c0.9,0.4,1.1,1.6,0.7,3.1C6.4,12.3,6,12,5.7,12c-0.6,0-0.9,0.5-0.9,1.3
		c0,0.1,0,0.2,0,0.3C4.9,15.1,5.9,16.7,7,17c0,0,0,0,0.1,0c0.9,0.2,1.6-0.2,2-1.4c0.3-0.9,0.4-2,0.6-3c0.1,0.2,0.1,0.4,0.3,0.6
		c0.6,1,1.1,2.1,1.9,2.9c1.1,1.2,2.5,0.7,3.2-1c0.5-1.1,0.6-2.4,0.4-3.6c-0.2-1.4-1-2.2-2.1-2.3c-0.4,0-0.9,0-1.3,0
		c0.1-1.7,1.1-2.3,3-1.4c-0.2-0.7-0.4-1.4-0.5-2.2c-0.3-1.8,0.1-3.3,1.2-4.5c0.3-0.4,0.6-0.4,0.9,0c1.2,1.4,1.5,3.1,1,5
		c-0.1,0.5-0.2,0.9-0.4,1.6c0.8-0.5,1.5-0.9,2.1-0.3c0.4,0.4,0.7,1,1.1,1.6c0,0.1-0.1,0.1-0.1,0.2c-0.1,0-0.2,0-0.3,0
		c-2.4-0.4-3.7,1.3-3.2,4.4c0.1,0.5,0.2,1,0.4,1.5c0.7,1.7,2,2.2,3.1,1c0.7-0.7,1.2-1.8,1.8-2.8c0.1-0.2,0.2-0.5,0.3-0.8
		c0.1,0.9,0.2,1.7,0.3,2.5c0.5,2.1,1.9,2.7,3.2,1.4c0.6-0.6,1.1-1.5,1.2-2.5c0.1-0.7,0.1-1.4-0.4-1.7c-0.5-0.4-1-0.3-1.4,0.6
		C24.8,11,25,9.8,25.9,9.4c0.9-0.5,1.7,0.1,2.3,1.9c1-1.9,1.9-2.4,3.3-1.8c-3.2,4-4.7,9-5.2,14.5c-3.5-0.4-6.9-0.9-10.3-1.2
		C13.2,22.6,10.4,23,7.6,23.6z"/>
	<path class="st1" d="M5.8,28.2C5.8,28.2,5.8,28.2,5.8,28.2l0-2.5h0C5.8,26.6,5.8,27.4,5.8,28.2z"/>
</g>
</svg>
