<?xml version="1.0" encoding="utf-8"?>
<!-- Generator: Adobe Illustrator 25.0.0, SVG Export Plug-In . SVG Version: 6.00 Build 0)  -->
<svg version="1.1" id="Layer_1" xmlns="http://www.w3.org/2000/svg" xmlns:xlink="http://www.w3.org/1999/xlink" x="0px" y="0px"
	 viewBox="0 0 783 359" style="enable-background:new 0 0 783 359;" xml:space="preserve">
<style type="text/css">
	.st0{fill:#F16022;}
	.st1{fill:none;}
	.st2{fill:#50C8EC;}
</style>
<path class="st0" d="M74.6,126.6C74.6,126.6,74.6,126.7,74.6,126.6L74.6,126.6L74.6,126.6z"/>
<path class="st0" d="M74.6,127.1L74.6,127.1c0-0.1,0-0.3,0-0.4C74.6,126.8,74.6,127,74.6,127.1z"/>
<path d="M74.6,127.1L74.6,127.1c0-0.1,0-0.3,0-0.4C74.6,126.8,74.6,127,74.6,127.1z"/>
<path class="st1" d="M74.6,123.1c0,1.2,0,2.3,0,3.5c0,0,0,0.1,0,0.1"/>
<g>
	<path class="st0" d="M65.9,123.5c-1.5,3.2-3.2,6.3-5,9.2c-0.1,0.2-0.2,0.3-0.3,0.5c-3.9,6.3-8.4,11.9-13.4,17.1c-1-0.3-2-0.6-3-0.9
		c7.7-7.8,14.1-16.7,19.1-27.2C64.2,122.6,65,123.1,65.9,123.5C65.9,123.5,65.9,123.5,65.9,123.5z"/>
	<path class="st0" d="M201.4,223v7.7c0,20.3-13.7,37.4-32.2,42.8c-1.2-4.9-5.6-8.5-10.9-8.5c-5.9,0-10.7,4.5-11.1,10.2h-13.4
		c-0.5-5.7-5.3-10.2-11.1-10.2c-4.8,0-8.9,3-10.5,7.2c-0.4-0.1-0.7-0.3-1.1-0.4c-1.2-0.5-2.4-1-3.5-1.6c-10-5.1-18-13.6-22.3-24.1
		c-2.3-5.5-3.5-11.5-3.5-17.8v-30.1c0-21.1-13.1-39.3-31.6-46.8c7.3-7.6,13.5-16.3,18.3-26.4c4.7,2.7,9.2,5.8,13.3,9.3
		c1.2,1,2.4,2.1,3.5,3.2c10.3,9.9,18.1,22.3,22.3,36.4c2.3,7.6,3.5,15.7,3.5,24l0.1,25.1c0,1.2,0.2,2.4,0.5,3.5
		c2.2,10.1,11.4,17.7,22.3,17.7h17.5c10.9,0,20.1-7.6,22.3-17.7c0.3-1.1,0.4-2.3,0.5-3.5H201.4z"/>
	<path class="st0" d="M122.6,267.4c-4.8,0-8.7,3.9-8.7,8.7c0,4.8,3.9,8.7,8.7,8.7c4.8,0,8.7-3.9,8.7-8.7
		C131.4,271.3,127.5,267.4,122.6,267.4z M122.6,279.3c-1.8,0-3.2-1.4-3.2-3.2c0-1.8,1.4-3.2,3.2-3.2c1.8,0,3.2,1.4,3.2,3.2
		C125.9,277.9,124.4,279.3,122.6,279.3z"/>
	<path class="st0" d="M158.3,267.4c-4.8,0-8.7,3.9-8.7,8.7c0,4.8,3.9,8.7,8.7,8.7c4.8,0,8.7-3.9,8.7-8.7
		C167,271.3,163.1,267.4,158.3,267.4z M158.3,279.3c-1.8,0-3.2-1.4-3.2-3.2c0-1.8,1.4-3.2,3.2-3.2c1.8,0,3.2,1.4,3.2,3.2
		C161.5,277.9,160.1,279.3,158.3,279.3z"/>
	<g>
		<path class="st0" d="M428.4,210.1v-0.5c5.8-2.3,9.5-9.7,9.5-16.2c0-14.8-12.8-18.8-28.5-18.8h-27.1V250h29.5
			c16.2,0,29.7-6.7,29.7-22.3C441.4,217.7,435.6,212.1,428.4,210.1z M402.2,189.9h6.7c6.5,0,9.5,1.9,9.5,6.5c0,4.6-3,7.7-9.5,7.7
			h-6.7V189.9z M410.3,234.6h-8.1v-16h8.1c7.9,0,11.6,2.1,11.6,7.7S418.2,234.6,410.3,234.6z"/>
		<path class="st0" d="M466.7,174.6l-23,75.4h20.4l3.7-16h21l3.7,16h21.1l-23-75.4H466.7z M471.5,218.5l1.2-5.2
			c1.9-7.2,3.7-16.2,5.3-23.9h0.5c1.9,7.5,3.7,16.7,5.6,23.9l1.2,5.2H471.5z"/>
		<polygon class="st0" points="571.7,186.6 571.7,174.6 519.3,174.6 519.3,191.3 547.1,191.3 516.3,237.9 516.3,250 572,250 
			572,233.3 540.9,233.3 		"/>
		<polygon class="st0" points="633.4,186.6 633.4,174.6 581,174.6 581,191.3 608.8,191.3 578,237.9 578,250 633.6,250 633.6,233.3 
			602.6,233.3 		"/>
		<path class="st0" d="M658.9,174.6L636,250h20.4l3.7-16h21l3.7,16H706l-23-75.4H658.9z M663.7,218.5l1.2-5.2
			c1.9-7.2,3.7-16.2,5.3-23.9h0.5c1.9,7.5,3.7,16.7,5.6,23.9l1.2,5.2H663.7z"/>
		<path class="st0" d="M774.9,250l-16.4-29.3c7.3-4,12.2-11,12.2-21.8c0-18.8-13.9-24.4-30.1-24.4H712V250H732v-25.3h7.7l13,25.3
			H774.9z M732,190.4h7.2c7.9,0,12.1,2.1,12.1,8.6s-4.2,10-12.1,10H732V190.4z"/>
	</g>
	<path class="st0" d="M76.4,95.5c-8,6.4-12.7,15.2-15.5,25.1c-0.1,0.1-0.1,0.3-0.2,0.4c0,0.1-0.1,0.1-0.1,0.2
		c-5.2,10.5-11.9,19.4-19.8,27.1c-4.5-1.3-9-2.3-13.3-3c-7.2-9.7-11.3-19.9-11.9-30.7c0-0.2,0-0.3,0-0.5v-0.1c0-1.5,0-3,0-4.5v0
		c-0.4-8.8-2.5-17-7.4-24.2c2.9-1.2,5.2,0.4,6.6,4.3c0.8-1,1.6-2.1,2.5-2.9c1.1-0.9,2.3-0.6,3.4,0.2c1.6,1.3,1.7,3.7,0.2,6.3
		c-0.1-0.3-0.2-0.5-0.4-0.7c-0.6-1-1.5-1.3-2.4-0.7c-0.6,0.4-1.4,1.1-1.5,1.9c-0.7,3,1.4,7.1,4,8c2,0.7,3.7,0.2,4.7-2
		c0.8-1.7,1.4-3.6,2-5.4c0.3,0.9,0.6,2,1,3c1,2.4,2.1,4.6,4.4,5.6c1.7,0.7,3.2,0.3,4.6-1.1c2.1-2.2,2.9-4.9,2.8-8
		c-0.1-2.6-1.7-4.5-4-5c-1-0.2-2-0.3-3-0.5c0.6-3.2,3.4-4,7-1.6c-0.2-1.5-0.4-2.9-0.4-4.3c-0.1-3.4,1-6.1,3.7-8.1
		c0.9-0.7,1.6-0.7,2.3,0.3c2,2.7,2.4,6.3,0.8,9.9c-0.4,0.9-0.8,1.7-1.3,2.7c4.2-1,6,0.2,6.3,3.9c-1.3-0.1-2.7-0.4-4.1-0.3
		c-2.1,0.1-3.6,1.5-4.3,3.7c-0.8,2.3-0.9,4.7-0.1,7c1.1,3.4,3.8,4.8,6.7,2.9c1.8-1.2,3.2-3.1,4.8-4.7c0.3-0.4,0.6-0.8,0.9-1.4
		c0,1.7-0.1,3.3,0.1,4.9c0.4,3.9,3,5.5,6.3,3.7c1.9-1,3.1-2.6,3.8-4.8c0.4-1.2,0.6-2.4-0.4-3.2c-1.1-0.9-2.2-0.9-3.3,0.5
		c-0.7-3.3,0.1-5.4,2.2-6.1c2.2-0.7,3.8,0.8,4.5,4.1c1.2-0.9,2.3-2,3.6-2.7C73.5,94.3,75,94.7,76.4,95.5z"/>
	<path class="st1" d="M40.8,148.3c-4.5-1.3-9-2.3-13.3-3"/>
	<g>
		<polygon class="st2" points="181.3,143.4 159.5,143.4 140.5,171.5 140,171.5 140,143.4 120,143.4 120,218.8 140,218.8 140,200 
			147.2,189.8 163.9,218.8 185.7,218.8 158.8,174 		"/>
		<rect x="191.2" y="160.8" class="st2" width="19.9" height="58"/>
		<ellipse class="st2" cx="201.2" cy="143.6" rx="11.1" ry="10"/>
		<path class="st2" d="M268.5,165.2c0,9.3,1.6,20.6,2.6,28.8h-0.5l-7.2-16.9l-16.7-33.6h-20.4v75.4h19V197c0-9.3-1.6-20.2-2.6-28.8
			h0.5l7.2,16.8l16.7,33.7h20.4v-75.4h-19V165.2z"/>
		<path class="st2" d="M335.7,174.9v16.2h11.1v10.4c-1.4,0.9-3.7,1.4-5.8,1.4c-13.5,0-19.7-7.9-19.7-22c0-13.7,7.7-21.8,17.9-21.8
			c6,0,9.7,2.3,13.5,5.6l10.4-12.8c-5.3-5.3-13.5-10-24.6-10c-20.2,0-37.6,14.4-37.6,39.7c0,25.7,16.9,38.5,38,38.5
			c10.7,0,20.2-4.2,25.5-9.3v-35.9H335.7z"/>
	</g>
</g>
</svg>
